<mxfile host="app.diagrams.net" modified="2023-05-22T08:00:35.032Z" agent="Mozilla/5.0 (Windows NT 10.0; Win64; x64) AppleWebKit/537.36 (KHTML, like Gecko) Chrome/113.0.0.0 Safari/537.36" etag="PYw3GPXLDqZ8WsdnDh9a" version="21.3.2" type="device">
  <diagram name="Trang-1" id="TiVUCx0yu2mR8kdzu2xo">
    <mxGraphModel dx="1430" dy="817" grid="1" gridSize="10" guides="1" tooltips="1" connect="1" arrows="1" fold="1" page="1" pageScale="1" pageWidth="827" pageHeight="1169" math="0" shadow="0">
      <root>
        <mxCell id="0" />
        <mxCell id="1" parent="0" />
        <mxCell id="1dY-zPTIdyvYccaWzUyQ-1" value="Đóng gói theo chuẩn Modbus RTU" style="ellipse;whiteSpace=wrap;html=1;" vertex="1" parent="1">
          <mxGeometry x="267.5" y="70" width="120" height="60" as="geometry" />
        </mxCell>
        <mxCell id="1dY-zPTIdyvYccaWzUyQ-2" value="CRC" style="rhombus;whiteSpace=wrap;html=1;" vertex="1" parent="1">
          <mxGeometry x="260" y="160" width="135" height="50" as="geometry" />
        </mxCell>
        <mxCell id="1dY-zPTIdyvYccaWzUyQ-3" value="" style="edgeStyle=none;orthogonalLoop=1;jettySize=auto;html=1;rounded=0;exitX=0.5;exitY=1;exitDx=0;exitDy=0;entryX=0.5;entryY=0;entryDx=0;entryDy=0;" edge="1" parent="1" source="1dY-zPTIdyvYccaWzUyQ-1" target="1dY-zPTIdyvYccaWzUyQ-2">
          <mxGeometry width="100" relative="1" as="geometry">
            <mxPoint x="307.5" y="140" as="sourcePoint" />
            <mxPoint x="407.5" y="140" as="targetPoint" />
            <Array as="points" />
          </mxGeometry>
        </mxCell>
        <mxCell id="1dY-zPTIdyvYccaWzUyQ-4" value="Function Code" style="rhombus;whiteSpace=wrap;html=1;" vertex="1" parent="1">
          <mxGeometry x="260" y="240" width="135" height="50" as="geometry" />
        </mxCell>
        <mxCell id="1dY-zPTIdyvYccaWzUyQ-5" value="" style="edgeStyle=none;orthogonalLoop=1;jettySize=auto;html=1;rounded=0;exitX=0.5;exitY=1;exitDx=0;exitDy=0;entryX=0.5;entryY=0;entryDx=0;entryDy=0;" edge="1" parent="1" source="1dY-zPTIdyvYccaWzUyQ-2" target="1dY-zPTIdyvYccaWzUyQ-4">
          <mxGeometry width="100" relative="1" as="geometry">
            <mxPoint x="297.5" y="220" as="sourcePoint" />
            <mxPoint x="397.5" y="220" as="targetPoint" />
            <Array as="points" />
          </mxGeometry>
        </mxCell>
        <mxCell id="1dY-zPTIdyvYccaWzUyQ-6" value="Nhiệt độ và độ ẩm" style="rhombus;whiteSpace=wrap;html=1;" vertex="1" parent="1">
          <mxGeometry x="260" y="320" width="135" height="50" as="geometry" />
        </mxCell>
        <mxCell id="1dY-zPTIdyvYccaWzUyQ-7" value="Địa chỉ và độ dài đọc" style="rhombus;whiteSpace=wrap;html=1;" vertex="1" parent="1">
          <mxGeometry x="260" y="400" width="135" height="50" as="geometry" />
        </mxCell>
        <mxCell id="1dY-zPTIdyvYccaWzUyQ-8" value="Đóng gói bản tin phản hồi lại&amp;nbsp;" style="rounded=1;whiteSpace=wrap;html=1;" vertex="1" parent="1">
          <mxGeometry x="267.5" y="490" width="120" height="60" as="geometry" />
        </mxCell>
        <mxCell id="1dY-zPTIdyvYccaWzUyQ-9" value="Kết thúc" style="ellipse;whiteSpace=wrap;html=1;" vertex="1" parent="1">
          <mxGeometry x="267.5" y="585" width="120" height="45" as="geometry" />
        </mxCell>
        <mxCell id="1dY-zPTIdyvYccaWzUyQ-10" value="" style="edgeStyle=none;orthogonalLoop=1;jettySize=auto;html=1;rounded=0;entryX=0.5;entryY=0;entryDx=0;entryDy=0;" edge="1" parent="1" target="1dY-zPTIdyvYccaWzUyQ-6">
          <mxGeometry width="100" relative="1" as="geometry">
            <mxPoint x="327.5" y="290" as="sourcePoint" />
            <mxPoint x="387.5" y="290" as="targetPoint" />
            <Array as="points" />
          </mxGeometry>
        </mxCell>
        <mxCell id="1dY-zPTIdyvYccaWzUyQ-11" value="" style="edgeStyle=none;orthogonalLoop=1;jettySize=auto;html=1;rounded=0;exitX=0.5;exitY=1;exitDx=0;exitDy=0;entryX=0.5;entryY=0;entryDx=0;entryDy=0;" edge="1" parent="1" source="1dY-zPTIdyvYccaWzUyQ-6" target="1dY-zPTIdyvYccaWzUyQ-7">
          <mxGeometry width="100" relative="1" as="geometry">
            <mxPoint x="297.5" y="370" as="sourcePoint" />
            <mxPoint x="397.5" y="370" as="targetPoint" />
            <Array as="points" />
          </mxGeometry>
        </mxCell>
        <mxCell id="1dY-zPTIdyvYccaWzUyQ-12" value="" style="edgeStyle=none;orthogonalLoop=1;jettySize=auto;html=1;rounded=0;exitX=0.5;exitY=1;exitDx=0;exitDy=0;entryX=0.5;entryY=0;entryDx=0;entryDy=0;" edge="1" parent="1" source="1dY-zPTIdyvYccaWzUyQ-7" target="1dY-zPTIdyvYccaWzUyQ-8">
          <mxGeometry width="100" relative="1" as="geometry">
            <mxPoint x="307.5" y="480" as="sourcePoint" />
            <mxPoint x="407.5" y="480" as="targetPoint" />
            <Array as="points" />
          </mxGeometry>
        </mxCell>
        <mxCell id="1dY-zPTIdyvYccaWzUyQ-13" value="" style="edgeStyle=none;orthogonalLoop=1;jettySize=auto;html=1;rounded=0;exitX=0.5;exitY=1;exitDx=0;exitDy=0;entryX=0.5;entryY=0;entryDx=0;entryDy=0;" edge="1" parent="1" source="1dY-zPTIdyvYccaWzUyQ-8" target="1dY-zPTIdyvYccaWzUyQ-9">
          <mxGeometry width="100" relative="1" as="geometry">
            <mxPoint x="297.5" y="560" as="sourcePoint" />
            <mxPoint x="397.5" y="560" as="targetPoint" />
            <Array as="points" />
          </mxGeometry>
        </mxCell>
        <mxCell id="1dY-zPTIdyvYccaWzUyQ-14" value="Địa chỉ cần ghi" style="rhombus;whiteSpace=wrap;html=1;" vertex="1" parent="1">
          <mxGeometry x="600" y="290" width="135" height="50" as="geometry" />
        </mxCell>
        <mxCell id="1dY-zPTIdyvYccaWzUyQ-15" value="Tham số ghi&amp;nbsp;" style="rhombus;whiteSpace=wrap;html=1;" vertex="1" parent="1">
          <mxGeometry x="600" y="405" width="135" height="50" as="geometry" />
        </mxCell>
        <mxCell id="1dY-zPTIdyvYccaWzUyQ-16" value="Thay đổi giá trị" style="rounded=1;whiteSpace=wrap;html=1;" vertex="1" parent="1">
          <mxGeometry x="607.5" y="505" width="120" height="25" as="geometry" />
        </mxCell>
        <mxCell id="1dY-zPTIdyvYccaWzUyQ-18" value="Lỗi CRC" style="rounded=1;whiteSpace=wrap;html=1;" vertex="1" parent="1">
          <mxGeometry x="160" y="170" width="70" height="30" as="geometry" />
        </mxCell>
        <mxCell id="1dY-zPTIdyvYccaWzUyQ-21" value="" style="edgeStyle=segmentEdgeStyle;endArrow=classic;html=1;curved=0;rounded=0;endSize=8;startSize=8;sourcePerimeterSpacing=0;targetPerimeterSpacing=0;exitX=0;exitY=0.5;exitDx=0;exitDy=0;entryX=0;entryY=0.5;entryDx=0;entryDy=0;" edge="1" parent="1" source="1dY-zPTIdyvYccaWzUyQ-18" target="1dY-zPTIdyvYccaWzUyQ-8">
          <mxGeometry width="100" relative="1" as="geometry">
            <mxPoint x="160" y="425" as="sourcePoint" />
            <mxPoint x="260" y="465" as="targetPoint" />
            <Array as="points">
              <mxPoint x="130" y="185" />
              <mxPoint x="130" y="520" />
            </Array>
          </mxGeometry>
        </mxCell>
        <mxCell id="1dY-zPTIdyvYccaWzUyQ-22" value="Lỗi Function Code" style="rounded=1;whiteSpace=wrap;html=1;" vertex="1" parent="1">
          <mxGeometry x="160" y="247.5" width="70" height="35" as="geometry" />
        </mxCell>
        <mxCell id="1dY-zPTIdyvYccaWzUyQ-23" value="" style="edgeStyle=none;orthogonalLoop=1;jettySize=auto;html=1;rounded=0;exitX=0;exitY=0.5;exitDx=0;exitDy=0;entryX=1;entryY=0.5;entryDx=0;entryDy=0;" edge="1" parent="1" source="1dY-zPTIdyvYccaWzUyQ-2" target="1dY-zPTIdyvYccaWzUyQ-18">
          <mxGeometry width="100" relative="1" as="geometry">
            <mxPoint x="200" y="195" as="sourcePoint" />
            <mxPoint x="180" y="225" as="targetPoint" />
            <Array as="points" />
          </mxGeometry>
        </mxCell>
        <mxCell id="1dY-zPTIdyvYccaWzUyQ-24" value="Lỗi I2C" style="rounded=1;whiteSpace=wrap;html=1;" vertex="1" parent="1">
          <mxGeometry x="160" y="330" width="70" height="30" as="geometry" />
        </mxCell>
        <mxCell id="1dY-zPTIdyvYccaWzUyQ-25" value="Lỗi địa chỉ hoặc độ dài thanh ghi, tham số điều chỉnh không phù hợp" style="rounded=1;whiteSpace=wrap;html=1;" vertex="1" parent="1">
          <mxGeometry x="430" y="395" width="120" height="70" as="geometry" />
        </mxCell>
        <mxCell id="1dY-zPTIdyvYccaWzUyQ-26" value="" style="edgeStyle=none;orthogonalLoop=1;jettySize=auto;html=1;rounded=0;entryX=1;entryY=0.5;entryDx=0;entryDy=0;exitX=0;exitY=0.5;exitDx=0;exitDy=0;" edge="1" parent="1" source="1dY-zPTIdyvYccaWzUyQ-4" target="1dY-zPTIdyvYccaWzUyQ-22">
          <mxGeometry width="100" relative="1" as="geometry">
            <mxPoint x="200" y="225" as="sourcePoint" />
            <mxPoint x="300" y="225" as="targetPoint" />
            <Array as="points" />
          </mxGeometry>
        </mxCell>
        <mxCell id="1dY-zPTIdyvYccaWzUyQ-29" value="" style="edgeStyle=none;orthogonalLoop=1;jettySize=auto;html=1;rounded=0;entryX=1;entryY=0.5;entryDx=0;entryDy=0;exitX=0;exitY=0.5;exitDx=0;exitDy=0;" edge="1" parent="1">
          <mxGeometry width="100" relative="1" as="geometry">
            <mxPoint x="160" y="264.78" as="sourcePoint" />
            <mxPoint x="130" y="264.78" as="targetPoint" />
            <Array as="points" />
          </mxGeometry>
        </mxCell>
        <mxCell id="1dY-zPTIdyvYccaWzUyQ-32" value="" style="edgeStyle=none;orthogonalLoop=1;jettySize=auto;html=1;rounded=0;entryX=1;entryY=0.5;entryDx=0;entryDy=0;exitX=0;exitY=0.5;exitDx=0;exitDy=0;" edge="1" parent="1">
          <mxGeometry width="100" relative="1" as="geometry">
            <mxPoint x="260" y="344.78" as="sourcePoint" />
            <mxPoint x="230" y="344.78" as="targetPoint" />
            <Array as="points" />
          </mxGeometry>
        </mxCell>
        <mxCell id="1dY-zPTIdyvYccaWzUyQ-33" value="" style="edgeStyle=none;orthogonalLoop=1;jettySize=auto;html=1;rounded=0;entryX=1;entryY=0.5;entryDx=0;entryDy=0;exitX=0;exitY=0.5;exitDx=0;exitDy=0;" edge="1" parent="1">
          <mxGeometry width="100" relative="1" as="geometry">
            <mxPoint x="160" y="344.78" as="sourcePoint" />
            <mxPoint x="130" y="344.78" as="targetPoint" />
            <Array as="points" />
          </mxGeometry>
        </mxCell>
        <mxCell id="1dY-zPTIdyvYccaWzUyQ-36" value="" style="edgeStyle=none;orthogonalLoop=1;jettySize=auto;html=1;rounded=0;exitX=0.5;exitY=1;exitDx=0;exitDy=0;entryX=0.5;entryY=0;entryDx=0;entryDy=0;" edge="1" parent="1" source="1dY-zPTIdyvYccaWzUyQ-14" target="1dY-zPTIdyvYccaWzUyQ-15">
          <mxGeometry width="100" relative="1" as="geometry">
            <mxPoint x="580" y="355" as="sourcePoint" />
            <mxPoint x="670" y="365" as="targetPoint" />
            <Array as="points" />
          </mxGeometry>
        </mxCell>
        <mxCell id="1dY-zPTIdyvYccaWzUyQ-37" value="" style="edgeStyle=none;orthogonalLoop=1;jettySize=auto;html=1;rounded=0;entryX=0.5;entryY=0;entryDx=0;entryDy=0;exitX=0.5;exitY=1;exitDx=0;exitDy=0;" edge="1" parent="1" source="1dY-zPTIdyvYccaWzUyQ-15" target="1dY-zPTIdyvYccaWzUyQ-16">
          <mxGeometry width="100" relative="1" as="geometry">
            <mxPoint x="570" y="425" as="sourcePoint" />
            <mxPoint x="670" y="425" as="targetPoint" />
            <Array as="points" />
          </mxGeometry>
        </mxCell>
        <mxCell id="1dY-zPTIdyvYccaWzUyQ-39" value="" style="edgeStyle=segmentEdgeStyle;endArrow=classic;html=1;curved=0;rounded=0;endSize=8;startSize=8;sourcePerimeterSpacing=0;targetPerimeterSpacing=0;exitX=0;exitY=0.5;exitDx=0;exitDy=0;entryX=0.986;entryY=0.403;entryDx=0;entryDy=0;entryPerimeter=0;" edge="1" parent="1" source="1dY-zPTIdyvYccaWzUyQ-16" target="1dY-zPTIdyvYccaWzUyQ-8">
          <mxGeometry width="100" relative="1" as="geometry">
            <mxPoint x="570" y="615" as="sourcePoint" />
            <mxPoint x="670" y="655" as="targetPoint" />
            <Array as="points">
              <mxPoint x="607" y="515" />
              <mxPoint x="386" y="515" />
            </Array>
          </mxGeometry>
        </mxCell>
        <mxCell id="1dY-zPTIdyvYccaWzUyQ-40" value="" style="edgeStyle=none;orthogonalLoop=1;jettySize=auto;html=1;rounded=0;exitX=1;exitY=0.5;exitDx=0;exitDy=0;entryX=0;entryY=0.429;entryDx=0;entryDy=0;entryPerimeter=0;" edge="1" parent="1" source="1dY-zPTIdyvYccaWzUyQ-7" target="1dY-zPTIdyvYccaWzUyQ-25">
          <mxGeometry width="100" relative="1" as="geometry">
            <mxPoint x="390" y="375" as="sourcePoint" />
            <mxPoint x="490" y="375" as="targetPoint" />
            <Array as="points" />
          </mxGeometry>
        </mxCell>
        <mxCell id="1dY-zPTIdyvYccaWzUyQ-42" value="" style="edgeStyle=segmentEdgeStyle;endArrow=classic;html=1;curved=0;rounded=0;endSize=8;startSize=8;sourcePerimeterSpacing=0;targetPerimeterSpacing=0;entryX=0.5;entryY=0;entryDx=0;entryDy=0;exitX=0;exitY=0.5;exitDx=0;exitDy=0;" edge="1" parent="1" source="1dY-zPTIdyvYccaWzUyQ-14" target="1dY-zPTIdyvYccaWzUyQ-25">
          <mxGeometry width="100" relative="1" as="geometry">
            <mxPoint x="470" y="305" as="sourcePoint" />
            <mxPoint x="570" y="345" as="targetPoint" />
            <Array as="points">
              <mxPoint x="490" y="315" />
            </Array>
          </mxGeometry>
        </mxCell>
        <mxCell id="1dY-zPTIdyvYccaWzUyQ-43" value="Sai" style="text;html=1;align=center;verticalAlign=middle;resizable=0;points=[];autosize=1;strokeColor=none;fillColor=none;" vertex="1" parent="1">
          <mxGeometry x="230" y="155" width="40" height="30" as="geometry" />
        </mxCell>
        <mxCell id="1dY-zPTIdyvYccaWzUyQ-44" value="Đúng" style="text;html=1;align=center;verticalAlign=middle;resizable=0;points=[];autosize=1;strokeColor=none;fillColor=none;" vertex="1" parent="1">
          <mxGeometry x="337.5" y="210" width="50" height="30" as="geometry" />
        </mxCell>
        <mxCell id="1dY-zPTIdyvYccaWzUyQ-45" value="0x06" style="text;html=1;align=center;verticalAlign=middle;resizable=0;points=[];autosize=1;strokeColor=none;fillColor=none;" vertex="1" parent="1">
          <mxGeometry x="465" y="235" width="50" height="30" as="geometry" />
        </mxCell>
        <mxCell id="1dY-zPTIdyvYccaWzUyQ-46" value="0x03" style="text;html=1;align=center;verticalAlign=middle;resizable=0;points=[];autosize=1;strokeColor=none;fillColor=none;" vertex="1" parent="1">
          <mxGeometry x="325" y="293" width="50" height="30" as="geometry" />
        </mxCell>
        <mxCell id="1dY-zPTIdyvYccaWzUyQ-47" value="Khác" style="text;html=1;align=center;verticalAlign=middle;resizable=0;points=[];autosize=1;strokeColor=none;fillColor=none;" vertex="1" parent="1">
          <mxGeometry x="225" y="235" width="50" height="30" as="geometry" />
        </mxCell>
        <mxCell id="1dY-zPTIdyvYccaWzUyQ-48" value="Đúng" style="text;html=1;align=center;verticalAlign=middle;resizable=0;points=[];autosize=1;strokeColor=none;fillColor=none;" vertex="1" parent="1">
          <mxGeometry x="325" y="370" width="50" height="30" as="geometry" />
        </mxCell>
        <mxCell id="1dY-zPTIdyvYccaWzUyQ-50" value="Sai" style="text;html=1;align=center;verticalAlign=middle;resizable=0;points=[];autosize=1;strokeColor=none;fillColor=none;" vertex="1" parent="1">
          <mxGeometry x="227.5" y="315" width="40" height="30" as="geometry" />
        </mxCell>
        <mxCell id="1dY-zPTIdyvYccaWzUyQ-51" value="" style="edgeStyle=segmentEdgeStyle;endArrow=classic;html=1;curved=0;rounded=0;endSize=8;startSize=8;sourcePerimeterSpacing=0;targetPerimeterSpacing=0;entryX=0.5;entryY=0;entryDx=0;entryDy=0;exitX=1;exitY=0.5;exitDx=0;exitDy=0;" edge="1" parent="1" source="1dY-zPTIdyvYccaWzUyQ-4" target="1dY-zPTIdyvYccaWzUyQ-14">
          <mxGeometry width="100" relative="1" as="geometry">
            <mxPoint x="400" y="275" as="sourcePoint" />
            <mxPoint x="490" y="295" as="targetPoint" />
            <Array as="points">
              <mxPoint x="668" y="265" />
            </Array>
          </mxGeometry>
        </mxCell>
        <mxCell id="1dY-zPTIdyvYccaWzUyQ-52" value="" style="edgeStyle=none;orthogonalLoop=1;jettySize=auto;html=1;rounded=0;entryX=1;entryY=0.5;entryDx=0;entryDy=0;exitX=0;exitY=0.5;exitDx=0;exitDy=0;" edge="1" parent="1" source="1dY-zPTIdyvYccaWzUyQ-15" target="1dY-zPTIdyvYccaWzUyQ-25">
          <mxGeometry width="100" relative="1" as="geometry">
            <mxPoint x="540" y="395" as="sourcePoint" />
            <mxPoint x="640" y="395" as="targetPoint" />
            <Array as="points" />
          </mxGeometry>
        </mxCell>
        <mxCell id="1dY-zPTIdyvYccaWzUyQ-53" value="" style="edgeStyle=none;orthogonalLoop=1;jettySize=auto;html=1;rounded=0;exitX=0.5;exitY=1;exitDx=0;exitDy=0;" edge="1" parent="1" source="1dY-zPTIdyvYccaWzUyQ-25">
          <mxGeometry width="100" relative="1" as="geometry">
            <mxPoint x="440" y="485" as="sourcePoint" />
            <mxPoint x="490" y="515" as="targetPoint" />
            <Array as="points" />
          </mxGeometry>
        </mxCell>
        <mxCell id="1dY-zPTIdyvYccaWzUyQ-55" value="Đúng" style="text;html=1;align=center;verticalAlign=middle;resizable=0;points=[];autosize=1;strokeColor=none;fillColor=none;" vertex="1" parent="1">
          <mxGeometry x="670" y="355" width="50" height="30" as="geometry" />
        </mxCell>
        <mxCell id="1dY-zPTIdyvYccaWzUyQ-58" value="Sai" style="text;html=1;align=center;verticalAlign=middle;resizable=0;points=[];autosize=1;strokeColor=none;fillColor=none;" vertex="1" parent="1">
          <mxGeometry x="560" y="282.5" width="40" height="30" as="geometry" />
        </mxCell>
        <mxCell id="1dY-zPTIdyvYccaWzUyQ-59" value="Đúng" style="text;html=1;align=center;verticalAlign=middle;resizable=0;points=[];autosize=1;strokeColor=none;fillColor=none;" vertex="1" parent="1">
          <mxGeometry x="670" y="460" width="50" height="30" as="geometry" />
        </mxCell>
        <mxCell id="1dY-zPTIdyvYccaWzUyQ-60" value="Sai" style="text;html=1;align=center;verticalAlign=middle;resizable=0;points=[];autosize=1;strokeColor=none;fillColor=none;" vertex="1" parent="1">
          <mxGeometry x="560" y="395" width="40" height="30" as="geometry" />
        </mxCell>
        <mxCell id="1dY-zPTIdyvYccaWzUyQ-62" value="Sai" style="text;html=1;align=center;verticalAlign=middle;resizable=0;points=[];autosize=1;strokeColor=none;fillColor=none;" vertex="1" parent="1">
          <mxGeometry x="387.5" y="395" width="40" height="30" as="geometry" />
        </mxCell>
        <mxCell id="1dY-zPTIdyvYccaWzUyQ-63" value="Đúng" style="text;html=1;align=center;verticalAlign=middle;resizable=0;points=[];autosize=1;strokeColor=none;fillColor=none;" vertex="1" parent="1">
          <mxGeometry x="325" y="453" width="50" height="30" as="geometry" />
        </mxCell>
      </root>
    </mxGraphModel>
  </diagram>
</mxfile>
